<mxfile host="app.diagrams.net" modified="2022-11-02T01:32:46.568Z" agent="5.0 (Windows NT 10.0; Win64; x64) AppleWebKit/537.36 (KHTML, like Gecko) Chrome/106.0.0.0 Safari/537.36" etag="VNiP_apyJR5H1REf1epN" version="20.5.1" type="github">
  <diagram id="6I0OCvxSQrVGMHxT2VVA" name="Page-1">
    <mxGraphModel dx="862" dy="482" grid="1" gridSize="10" guides="1" tooltips="1" connect="1" arrows="1" fold="1" page="1" pageScale="1" pageWidth="850" pageHeight="1100" math="0" shadow="0">
      <root>
        <mxCell id="0" />
        <mxCell id="1" parent="0" />
        <mxCell id="_rzVK0vFuZS6j9txDiQ_-42" value="Leilão - Caso de Uso" style="shape=umlFrame;whiteSpace=wrap;html=1;comic=0;fontSize=8;width=140;height=30;" vertex="1" parent="1">
          <mxGeometry x="120" y="10" width="430" height="410" as="geometry" />
        </mxCell>
        <mxCell id="_rzVK0vFuZS6j9txDiQ_-1" value="Actor" style="shape=umlActor;verticalLabelPosition=bottom;verticalAlign=top;html=1;outlineConnect=0;" vertex="1" parent="1">
          <mxGeometry x="760" y="1000" width="30" height="60" as="geometry" />
        </mxCell>
        <mxCell id="_rzVK0vFuZS6j9txDiQ_-21" value="" style="edgeStyle=orthogonalEdgeStyle;rounded=0;orthogonalLoop=1;jettySize=auto;html=1;" edge="1" parent="1" source="_rzVK0vFuZS6j9txDiQ_-2" target="_rzVK0vFuZS6j9txDiQ_-9">
          <mxGeometry relative="1" as="geometry">
            <Array as="points">
              <mxPoint x="480" y="240" />
            </Array>
          </mxGeometry>
        </mxCell>
        <mxCell id="_rzVK0vFuZS6j9txDiQ_-45" style="edgeStyle=orthogonalEdgeStyle;rounded=0;orthogonalLoop=1;jettySize=auto;html=1;exitX=0;exitY=1;exitDx=0;exitDy=0;exitPerimeter=0;fontSize=8;" edge="1" parent="1" source="_rzVK0vFuZS6j9txDiQ_-2" target="_rzVK0vFuZS6j9txDiQ_-11">
          <mxGeometry relative="1" as="geometry">
            <Array as="points">
              <mxPoint x="580" y="280" />
              <mxPoint x="580" y="315" />
              <mxPoint x="445" y="315" />
            </Array>
          </mxGeometry>
        </mxCell>
        <object label="Leiloeiro&lt;br&gt;" id="_rzVK0vFuZS6j9txDiQ_-2">
          <mxCell style="shape=umlActor;verticalLabelPosition=bottom;verticalAlign=top;outlineConnect=0;overflow=visible;noLabel=0;align=center;html=1;comic=0;" vertex="1" parent="1">
            <mxGeometry x="590" y="200" width="40" height="80" as="geometry" />
          </mxCell>
        </object>
        <mxCell id="_rzVK0vFuZS6j9txDiQ_-15" value="" style="edgeStyle=orthogonalEdgeStyle;rounded=0;orthogonalLoop=1;jettySize=auto;html=1;" edge="1" parent="1" source="_rzVK0vFuZS6j9txDiQ_-4" target="_rzVK0vFuZS6j9txDiQ_-10">
          <mxGeometry relative="1" as="geometry">
            <Array as="points">
              <mxPoint x="90" y="245" />
            </Array>
          </mxGeometry>
        </mxCell>
        <mxCell id="_rzVK0vFuZS6j9txDiQ_-20" value="" style="edgeStyle=orthogonalEdgeStyle;rounded=0;orthogonalLoop=1;jettySize=auto;html=1;exitX=1;exitY=1;exitDx=0;exitDy=0;exitPerimeter=0;" edge="1" parent="1" source="_rzVK0vFuZS6j9txDiQ_-4" target="_rzVK0vFuZS6j9txDiQ_-12">
          <mxGeometry relative="1" as="geometry">
            <Array as="points">
              <mxPoint x="90" y="340" />
            </Array>
          </mxGeometry>
        </mxCell>
        <mxCell id="_rzVK0vFuZS6j9txDiQ_-31" style="edgeStyle=orthogonalEdgeStyle;rounded=0;orthogonalLoop=1;jettySize=auto;html=1;entryX=0;entryY=0.5;entryDx=0;entryDy=0;" edge="1" parent="1" target="_rzVK0vFuZS6j9txDiQ_-13">
          <mxGeometry relative="1" as="geometry">
            <mxPoint x="90" y="160" as="sourcePoint" />
            <Array as="points">
              <mxPoint x="200" y="160" />
              <mxPoint x="200" y="110" />
            </Array>
          </mxGeometry>
        </mxCell>
        <mxCell id="_rzVK0vFuZS6j9txDiQ_-4" value="Usuário&lt;br&gt;" style="shape=umlActor;verticalLabelPosition=bottom;verticalAlign=top;html=1;outlineConnect=0;" vertex="1" parent="1">
          <mxGeometry x="50" y="120" width="40" height="80" as="geometry" />
        </mxCell>
        <mxCell id="_rzVK0vFuZS6j9txDiQ_-9" value="Criar leilão" style="ellipse;whiteSpace=wrap;html=1;comic=0;" vertex="1" parent="1">
          <mxGeometry x="440" y="260" width="75" height="30" as="geometry" />
        </mxCell>
        <mxCell id="_rzVK0vFuZS6j9txDiQ_-43" value="" style="edgeStyle=orthogonalEdgeStyle;rounded=0;orthogonalLoop=1;jettySize=auto;html=1;fontSize=8;exitX=0.5;exitY=1;exitDx=0;exitDy=0;" edge="1" parent="1" source="_rzVK0vFuZS6j9txDiQ_-10" target="_rzVK0vFuZS6j9txDiQ_-9">
          <mxGeometry relative="1" as="geometry" />
        </mxCell>
        <mxCell id="_rzVK0vFuZS6j9txDiQ_-10" value="dar lances em um leilão criado&lt;br&gt;" style="ellipse;whiteSpace=wrap;html=1;comic=0;" vertex="1" parent="1">
          <mxGeometry x="270" y="220" width="110" height="50" as="geometry" />
        </mxCell>
        <mxCell id="_rzVK0vFuZS6j9txDiQ_-11" value="finalizar leilão&lt;br&gt;" style="ellipse;whiteSpace=wrap;html=1;comic=0;" vertex="1" parent="1">
          <mxGeometry x="410" y="350" width="70" height="40" as="geometry" />
        </mxCell>
        <mxCell id="_rzVK0vFuZS6j9txDiQ_-12" value="ganhar um leilão&lt;br&gt;" style="ellipse;whiteSpace=wrap;html=1;comic=0;" vertex="1" parent="1">
          <mxGeometry x="140" y="275" width="80" height="40" as="geometry" />
        </mxCell>
        <mxCell id="_rzVK0vFuZS6j9txDiQ_-13" value="pagar pelo produto&lt;br&gt;" style="ellipse;whiteSpace=wrap;html=1;comic=0;" vertex="1" parent="1">
          <mxGeometry x="210" y="90" width="70" height="40" as="geometry" />
        </mxCell>
        <mxCell id="_rzVK0vFuZS6j9txDiQ_-34" value="" style="edgeStyle=orthogonalEdgeStyle;rounded=0;orthogonalLoop=1;jettySize=auto;html=1;" edge="1" parent="1" source="_rzVK0vFuZS6j9txDiQ_-32" target="_rzVK0vFuZS6j9txDiQ_-13">
          <mxGeometry relative="1" as="geometry">
            <Array as="points">
              <mxPoint x="390" y="110" />
            </Array>
          </mxGeometry>
        </mxCell>
        <mxCell id="_rzVK0vFuZS6j9txDiQ_-32" value="Cartão de Crédito&lt;br&gt;" style="ellipse;whiteSpace=wrap;html=1;comic=0;" vertex="1" parent="1">
          <mxGeometry x="340" y="40" width="90" height="40" as="geometry" />
        </mxCell>
        <mxCell id="_rzVK0vFuZS6j9txDiQ_-35" value="" style="edgeStyle=orthogonalEdgeStyle;rounded=0;orthogonalLoop=1;jettySize=auto;html=1;" edge="1" parent="1" source="_rzVK0vFuZS6j9txDiQ_-33" target="_rzVK0vFuZS6j9txDiQ_-13">
          <mxGeometry relative="1" as="geometry">
            <Array as="points">
              <mxPoint x="390" y="110" />
            </Array>
          </mxGeometry>
        </mxCell>
        <mxCell id="_rzVK0vFuZS6j9txDiQ_-33" value="Boleto&lt;br&gt;" style="ellipse;whiteSpace=wrap;html=1;comic=0;" vertex="1" parent="1">
          <mxGeometry x="345" y="140" width="80" height="30" as="geometry" />
        </mxCell>
        <mxCell id="_rzVK0vFuZS6j9txDiQ_-38" value="&lt;font style=&quot;font-size: 8px;&quot;&gt;&amp;lt;&amp;lt;depends&amp;gt;&amp;gt;&lt;/font&gt;" style="text;html=1;strokeColor=none;fillColor=none;align=center;verticalAlign=middle;whiteSpace=wrap;rounded=0;comic=0;" vertex="1" parent="1">
          <mxGeometry x="330" y="290" width="60" height="10" as="geometry" />
        </mxCell>
        <mxCell id="_rzVK0vFuZS6j9txDiQ_-39" value="&lt;font style=&quot;font-size: 8px;&quot;&gt;&amp;lt;&amp;lt;extends&amp;gt;&amp;gt;&lt;/font&gt;" style="text;html=1;strokeColor=none;fillColor=none;align=center;verticalAlign=middle;whiteSpace=wrap;rounded=0;comic=0;" vertex="1" parent="1">
          <mxGeometry x="390" y="100" width="60" height="20" as="geometry" />
        </mxCell>
      </root>
    </mxGraphModel>
  </diagram>
</mxfile>
